<svg width="1442" height="314" viewBox="0 0 1442 314" fill="none" xmlns="http://www.w3.org/2000/svg">
<path d="M1436.59 313.869L1407.27 276.038C1377.95 237.807 1319.28 162.745 1260.06 118.678C1200.84 74.6104 1141.03 63.5378 1080.57 88.7595C1020.1 114.381 958.961 177.297 898.78 186.921C838.605 196.145 779.366 153.078 719.859 125.008C660.352 96.9379 600.541 85.8653 540.747 73.7929C480.954 61.7205 421.143 50.648 360.681 75.8696C300.213 101.491 239.077 164.407 178.992 168.632C118.899 173.257 59.8755 118.191 30.3512 91.3583L0.833997 64.1255L1.97976 0.135784L31.975 0.672862C61.9701 1.20994 121.961 2.28409 181.951 3.35825C241.941 4.43241 301.932 5.50656 361.922 6.58072C421.912 7.65487 481.903 8.72903 541.893 9.80318C601.884 10.8773 661.874 11.9515 721.864 13.0256C781.855 14.0998 841.845 15.174 901.836 16.2481C961.826 17.3223 1021.82 18.3964 1081.81 19.4706C1141.8 20.5447 1201.79 21.6189 1261.78 22.693C1321.77 23.7672 1381.76 24.8414 1411.75 25.3784L1441.75 25.9155L1436.59 313.869Z" fill="#1976D2"/>
</svg>
